<svg xmlns="http://www.w3.org/2000/svg" xmlns:xlink="http://www.w3.org/1999/xlink" version="1.1" x="0px" y="0px" viewBox="0 0 80 100" enable-background="new 0 0 80 80" xml:space="preserve"><g><path fill="#000000" d="M54,53c-11.2,0-14.9-4.9-18.6-9.7C32.1,39.1,29,35,20,35v-2c10,0,13.5,4.6,17,9.1c3.5,4.6,6.8,8.9,17,8.9   V53z"/></g><g><path fill="#000000" d="M53,47l5.7,5L53,57C53,57,53,46.6,53,47z"/></g><g><path fill="#000000" d="M39.7,41.5l-1.5-1.4c2.8-3,6.9-6.2,15.7-6.2v2C45.9,36,42.3,38.8,39.7,41.5z"/></g><g><path fill="#000000" d="M20,54v-2c7.3,0,10.7-2.7,13.2-5.7l1.5,1.3C32,50.8,28.1,54,20,54z"/></g><g><path fill="#000000" d="M53,40l5.7-5L53,30C53,30,53,40.4,53,40z"/></g></svg>
